# xmcd
#
# Track frame offsets:
#	150
#	10365
#	31252
#	47085
#	77875
#	88927
#	115247
#	129792
#	147737
#	163695
#	174937
#	196222
#	213497
#	226439
#	246114
#	262807
#	277449
#	299762
#	315397
#	335634
#
# Disc length: 4780 seconds
#
# Revision: 1
# Processed by: cddbd v1.5.1PL2 Copyright (c) Steve Scherf et al.
# Submitted via: freedbtool 1.11
#
DISCID=2d12aa14
DTITLE=Stevie Ray Vaughan - The Sky is Crying/Family style
DYEAR=1990
DGENRE=
TTITLE0=Boot Hill
TTITLE1=The Sky Is Crying
TTITLE2=Empty Arms
TTITLE3=Little Wing
TTITLE4=Wham
TTITLE5=May I Have A Talk With You
TTITLE6=Close To You
TTITLE7=Chitlins Con Carne
TTITLE8=So Excited
TTITLE9=Life By The Drop
TTITLE10=Hard To Be
TTITLE11=White Boots
TTITLE12=D/EW
TTITLE13=Good Texan
TTITLE14=Hillbillies From Outerspace
TTITLE15=Long Way From Home
TTITLE16=Tick Tock
TTITLE17=Telephone Song
TTITLE18=Baboom - Mama Said
TTITLE19=Brothers
EXTD=
EXTT0=
EXTT1=
EXTT2=
EXTT3=
EXTT4=
EXTT5=
EXTT6=
EXTT7=
EXTT8=
EXTT9=
EXTT10=
EXTT11=
EXTT12=
EXTT13=
EXTT14=
EXTT15=
EXTT16=
EXTT17=
EXTT18=
EXTT19=
PLAYORDER=
